<?xml version="1.0" encoding="UTF-8" standalone="no"?>
<!-- Created with Inkscape (http://www.inkscape.org/) -->

<svg
   xmlns:dc="http://purl.org/dc/elements/1.1/"
   xmlns:cc="http://creativecommons.org/ns#"
   xmlns:rdf="http://www.w3.org/1999/02/22-rdf-syntax-ns#"
   xmlns:svg="http://www.w3.org/2000/svg"
   xmlns="http://www.w3.org/2000/svg"
   xmlns:sodipodi="http://sodipodi.sourceforge.net/DTD/sodipodi-0.dtd"
   xmlns:inkscape="http://www.inkscape.org/namespaces/inkscape"
   width="210mm"
   height="297mm"
   viewBox="0 0 744.09448819 1052.3622047"
   id="svg2"
   version="1.1"
   inkscape:version="0.91 r13725"
   sodipodi:docname="Pokeball_remix.svg">
  <defs
     id="defs4" />
  <sodipodi:namedview
     id="base"
     pagecolor="#ffffff"
     bordercolor="#666666"
     borderopacity="1.0"
     inkscape:pageopacity="0.0"
     inkscape:pageshadow="2"
     inkscape:zoom="0.7"
     inkscape:cx="237.46597"
     inkscape:cy="461.50625"
     inkscape:document-units="px"
     inkscape:current-layer="g4491"
     showgrid="false"
     inkscape:window-width="1600"
     inkscape:window-height="838"
     inkscape:window-x="-8"
     inkscape:window-y="-8"
     inkscape:window-maximized="1">
    <inkscape:grid
       type="xygrid"
       id="grid3336" />
  </sodipodi:namedview>
  <metadata
     id="metadata7">
    <rdf:RDF>
      <cc:Work
         rdf:about="">
        <dc:format>image/svg+xml</dc:format>
        <dc:type
           rdf:resource="http://purl.org/dc/dcmitype/StillImage" />
        <dc:title></dc:title>
      </cc:Work>
    </rdf:RDF>
  </metadata>
  <g
     inkscape:label="Layer 1"
     inkscape:groupmode="layer"
     id="layer1"
     style="display:inline">
    <g
       id="g4491"
       transform="translate(1872.6543,-633.89613)">
      <circle
         style="opacity:1;fill:#000000;fill-opacity:1;stroke:#000000;stroke-width:3.08356476;stroke-linejoin:round;stroke-miterlimit:4;stroke-dasharray:none;stroke-dashoffset:0;stroke-opacity:1"
         id="circle4275"
         cx="-1500.6071"
         cy="1160.0773"
         r="205.57098" />
      <path
         style="opacity:1;fill:#ff0000;fill-opacity:1;stroke:#000000;stroke-width:3;stroke-linejoin:round;stroke-miterlimit:4;stroke-dasharray:none;stroke-dashoffset:0;stroke-opacity:1"
         d="m -1500.5133,960.17876 c -105.4697,0 -191.864,81.64094 -199.4512,185.17384 l 109.1387,0 a 92.057918,92.057918 0 0 1 90.8164,-77.2325 92.057918,92.057918 0 0 1 90.7773,77.5645 l 0.072,0 0,-0.332 107.9102,0 c -8.6743,-90.1936 -94.5663,-185.17384 -199.2637,-185.17384 z"
         id="path4277"
         inkscape:connector-curvature="0" />
      <path
         style="opacity:1;fill:#f2f2f2;fill-opacity:1;stroke:#000000;stroke-width:3;stroke-linejoin:round;stroke-miterlimit:4;stroke-dasharray:none;stroke-dashoffset:0;stroke-opacity:1"
         d="m -1500.6071,1091.9356 a 68.140961,68.140961 0 0 0 -68.1406,68.1406 68.140961,68.140961 0 0 0 68.1406,68.1426 68.140961,68.140961 0 0 0 68.1407,-68.1426 68.140961,68.140961 0 0 0 -68.1407,-68.1406 z m 0,43.4903 a 24.651379,24.651379 0 0 1 24.6524,24.6503 24.651379,24.651379 0 0 1 -24.6524,24.6524 24.651379,24.651379 0 0 1 -24.6503,-24.6524 24.651379,24.651379 0 0 1 24.6503,-24.6503 z"
         id="path4279"
         inkscape:connector-curvature="0" />
      <path
         style="opacity:1;fill:#eeeeec;fill-opacity:1;stroke:#000000;stroke-width:3;stroke-linejoin:round;stroke-miterlimit:4;stroke-dasharray:none;stroke-dashoffset:0;stroke-opacity:1"
         d="m -1700.5075,1165.6066 c 2.9823,107.8525 91.3447,194.3691 199.918,194.3691 108.2636,0 196.4238,-101.5605 199.8828,-194.3691 l -107.5175,0 a 92.057918,92.057918 0 0 1 -91.8614,86.4277 92.057918,92.057918 0 0 1 -91.7754,-86.4277 l -108.6465,0 z"
         id="path4281"
         inkscape:connector-curvature="0" />
      <path
         inkscape:connector-curvature="0"
         id="path4479"
         d="m -1500.5133,960.17876 c -105.4697,0 -191.864,81.64094 -199.4512,185.17384 l 109.1387,0 a 92.057918,92.057918 0 0 1 90.8164,-77.2325 92.057918,92.057918 0 0 1 90.7773,77.5645 l 0.072,0 0,-0.332 107.9102,0 c -8.6743,-90.1936 -94.5663,-185.17384 -199.2637,-185.17384 z"
         style="opacity:1;fill:#c7c8c6;fill-opacity:0.22471911;stroke:#000000;stroke-width:3;stroke-linejoin:round;stroke-miterlimit:4;stroke-dasharray:none;stroke-dashoffset:0;stroke-opacity:1" />
      <path
         style="opacity:1;fill:#555753;fill-opacity:0.22471912;stroke:none;stroke-width:3.75741243;stroke-linecap:round;stroke-linejoin:round;stroke-miterlimit:4;stroke-dasharray:none;stroke-dashoffset:0;stroke-opacity:0.64705882"
         d="m -1379.7717,1018.9887 a 219.26903,211.438 0 0 1 32.1015,109.7695 219.26903,211.438 0 0 1 -219.2695,211.4375 219.26903,211.438 0 0 1 -16.2559,-0.7851 197.26414,190.21901 0 0 0 75.5411,14.5664 197.26414,190.21901 0 0 0 197.2636,-190.2188 197.26414,190.21901 0 0 0 -69.3808,-144.7695 z"
         id="path4154"
         inkscape:connector-curvature="0" />
      <path
         style="opacity:1;fill:#ffffff;fill-opacity:0.58988761;stroke:none;stroke-width:4;stroke-linecap:round;stroke-linejoin:round;stroke-miterlimit:4;stroke-dasharray:none;stroke-dashoffset:0;stroke-opacity:0.64705882"
         d="m -1552.0185,978.16439 a 182.90458,182.90458 0 0 0 -140.4497,177.69191 182.90458,182.90458 0 0 0 94.0505,159.7984 206.40274,206.40274 0 0 1 -68.0124,-152.8123 206.40274,206.40274 0 0 1 114.4116,-184.67801 z"
         id="path4159"
         inkscape:connector-curvature="0" />
      <path
         inkscape:connector-curvature="0"
         id="path4164"
         d="m -1500.6071,1123.1248 c -20.4079,10e-5 -36.9517,16.5439 -36.9518,36.9518 -6e-4,20.4083 16.5435,36.9529 36.9518,36.953 20.4084,-10e-5 36.9525,-16.5446 36.9519,-36.953 -10e-5,-20.4079 -16.544,-36.9517 -36.9519,-36.9518 z m -7e-4,10.1998 c 14.7751,-8e-4 26.7533,11.9763 26.754,26.7513 8e-4,14.7762 -11.9778,26.7548 -26.754,26.754 -14.775,-7e-4 -26.7521,-11.9789 -26.7513,-26.754 7e-4,-14.774 11.9773,-26.7506 26.7513,-26.7513 z"
         style="opacity:1;fill:#555753;fill-opacity:0.37078654;stroke:none;stroke-width:1.73804641;stroke-linejoin:round;stroke-miterlimit:4;stroke-dasharray:none;stroke-dashoffset:0;stroke-opacity:1"
         sodipodi:nodetypes="scscssssss" />
    </g>
  </g>
</svg>
